STARTFONT 2.1
COMMENT
COMMENT Converted from OpenType font "manrope-regular.otf" by "otf2bdf 3.0".
COMMENT
FONT -FreeType-Manrope-Medium-R-Normal--25-180-100-100-P-113-ISO10646-1
SIZE 18 100 100
FONTBOUNDINGBOX 23 31 0 -6
STARTPROPERTIES 19
FOUNDRY "FreeType"
FAMILY_NAME "Manrope"
WEIGHT_NAME "Medium"
SLANT "R"
SETWIDTH_NAME "Normal"
ADD_STYLE_NAME ""
PIXEL_SIZE 25
POINT_SIZE 180
RESOLUTION_X 100
RESOLUTION_Y 100
SPACING "P"
AVERAGE_WIDTH 113
CHARSET_REGISTRY "ISO10646"
CHARSET_ENCODING "1"
FONT_ASCENT 26
FONT_DESCENT 7
COPYRIGHT "Copyright 2019-2021 The Manrope Project Authors (https://github.com/sharanda/manrope)"
_OTF_FONTFILE "manrope-regular.otf"
_OTF_PSNAME "Manrope-Regular"
ENDPROPERTIES
CHARS 191
STARTCHAR 0020
ENCODING 32
SWIDTH 200 0
DWIDTH 5 0
BBX 0 0 0 0
BITMAP
ENDCHAR
STARTCHAR 0021
ENCODING 33
SWIDTH 320 0
DWIDTH 8 0
BBX 2 18 3 0
BITMAP
C0
C0
C0
C0
C0
C0
C0
C0
C0
C0
C0
C0
C0
C0
00
00
C0
C0
ENDCHAR
STARTCHAR 0022
ENCODING 34
SWIDTH 400 0
DWIDTH 10 0
BBX 6 5 1 13
BITMAP
CC
CC
CC
CC
CC
ENDCHAR
STARTCHAR 0023
ENCODING 35
SWIDTH 920 0
DWIDTH 23 0
BBX 19 18 2 0
BITMAP
00C300
008200
018600
018600
018600
7FFFE0
7FFFE0
030C00
030C00
061800
061800
FFFFC0
FFFFC0
0C3000
0C3000
0C3000
082000
186000
ENDCHAR
STARTCHAR 0024
ENCODING 36
SWIDTH 600 0
DWIDTH 15 0
BBX 13 22 1 -2
BITMAP
0600
0600
1F80
3FE0
7070
6030
C018
4000
6000
3C00
1F80
03E0
0070
0018
0018
C018
E018
7030
3FE0
1FC0
0600
0600
ENDCHAR
STARTCHAR 0025
ENCODING 37
SWIDTH 920 0
DWIDTH 23 0
BBX 20 18 1 0
BITMAP
1E0020
3F0060
6180C0
408180
C08300
608600
619C00
3F3800
0C7000
00E100
01C7E0
038C60
071830
0E1830
1C1830
381830
700FE0
2007C0
ENDCHAR
STARTCHAR 0026
ENCODING 38
SWIDTH 640 0
DWIDTH 16 0
BBX 15 18 1 0
BITMAP
0F80
1FE0
3060
6000
6000
6000
3000
3800
1C00
7E18
6318
C198
C0D8
C078
6038
707C
3FEE
1FC4
ENDCHAR
STARTCHAR 0027
ENCODING 39
SWIDTH 200 0
DWIDTH 5 0
BBX 2 5 1 13
BITMAP
C0
C0
C0
C0
C0
ENDCHAR
STARTCHAR 0028
ENCODING 40
SWIDTH 440 0
DWIDTH 11 0
BBX 6 25 3 -4
BITMAP
04
0C
18
18
30
30
60
60
60
40
40
C0
C0
C0
40
40
60
60
60
30
30
10
18
0C
0C
ENDCHAR
STARTCHAR 0029
ENCODING 41
SWIDTH 440 0
DWIDTH 11 0
BBX 6 25 1 -4
BITMAP
40
E0
60
30
30
18
18
08
0C
0C
0C
0C
0C
0C
0C
0C
0C
0C
18
18
18
30
70
60
C0
ENDCHAR
STARTCHAR 002A
ENCODING 42
SWIDTH 440 0
DWIDTH 11 0
BBX 8 8 1 10
BITMAP
18
18
99
FF
3C
3C
66
66
ENDCHAR
STARTCHAR 002B
ENCODING 43
SWIDTH 560 0
DWIDTH 14 0
BBX 12 11 1 3
BITMAP
0600
0600
0600
0600
FFF0
FFF0
0600
0600
0600
0600
0600
ENDCHAR
STARTCHAR 002C
ENCODING 44
SWIDTH 280 0
DWIDTH 7 0
BBX 3 6 1 -3
BITMAP
E0
E0
E0
20
60
40
ENDCHAR
STARTCHAR 002D
ENCODING 45
SWIDTH 440 0
DWIDTH 11 0
BBX 8 2 1 7
BITMAP
FF
FF
ENDCHAR
STARTCHAR 002E
ENCODING 46
SWIDTH 240 0
DWIDTH 6 0
BBX 2 2 2 0
BITMAP
C0
C0
ENDCHAR
STARTCHAR 002F
ENCODING 47
SWIDTH 400 0
DWIDTH 10 0
BBX 6 18 2 0
BITMAP
0C
0C
0C
18
18
18
10
30
30
30
60
60
60
60
C0
C0
C0
C0
ENDCHAR
STARTCHAR 0030
ENCODING 48
SWIDTH 600 0
DWIDTH 15 0
BBX 11 18 2 0
BITMAP
1F00
3FC0
60C0
C060
C060
C020
C020
C020
C020
C020
C020
C020
C020
C060
C060
60E0
3FC0
1F00
ENDCHAR
STARTCHAR 0031
ENCODING 49
SWIDTH 400 0
DWIDTH 10 0
BBX 6 18 1 0
BITMAP
1C
7C
EC
8C
0C
0C
0C
0C
0C
0C
0C
0C
0C
0C
0C
0C
0C
0C
ENDCHAR
STARTCHAR 0032
ENCODING 50
SWIDTH 560 0
DWIDTH 14 0
BBX 12 18 1 0
BITMAP
0F80
3FC0
70E0
6070
C030
C030
0030
0030
0060
00E0
01C0
0300
0600
1C00
3800
7000
FFF0
FFF0
ENDCHAR
STARTCHAR 0033
ENCODING 51
SWIDTH 560 0
DWIDTH 14 0
BBX 11 18 1 0
BITMAP
7FE0
7FE0
00C0
0180
0300
0E00
1C00
1F80
11C0
0060
0060
0060
0060
0060
C060
60C0
3FC0
1F00
ENDCHAR
STARTCHAR 0034
ENCODING 52
SWIDTH 600 0
DWIDTH 15 0
BBX 12 18 1 0
BITMAP
0300
0300
0600
0600
0C00
0C00
1800
1800
3060
3060
6060
6060
E060
FFF0
FFF0
0060
0060
0060
ENDCHAR
STARTCHAR 0035
ENCODING 53
SWIDTH 560 0
DWIDTH 14 0
BBX 11 18 2 0
BITMAP
FFC0
FFC0
C000
C000
C000
C000
CC00
FF80
E1C0
C0E0
0060
0060
0060
8060
C060
E1C0
7F80
1F00
ENDCHAR
STARTCHAR 0036
ENCODING 54
SWIDTH 640 0
DWIDTH 16 0
BBX 12 18 2 0
BITMAP
1F00
3FC0
60E0
C000
C000
C000
C700
DFC0
F0E0
E060
C030
C030
C030
C030
C060
60E0
3FC0
1F00
ENDCHAR
STARTCHAR 0037
ENCODING 55
SWIDTH 520 0
DWIDTH 13 0
BBX 10 18 1 0
BITMAP
FFC0
FFC0
00C0
00C0
0180
0180
0300
0300
0300
0600
0600
0C00
0C00
0C00
1800
1800
3000
3000
ENDCHAR
STARTCHAR 0038
ENCODING 56
SWIDTH 600 0
DWIDTH 15 0
BBX 12 18 1 0
BITMAP
0F80
3FC0
7060
6060
6030
6060
7060
3FC0
3FC0
70E0
6070
6030
C030
6030
6030
7060
3FC0
0F80
ENDCHAR
STARTCHAR 0039
ENCODING 57
SWIDTH 640 0
DWIDTH 16 0
BBX 12 18 2 0
BITMAP
1F00
3FC0
60E0
C060
C030
8030
8030
C030
C070
70F0
3FB0
0E30
0030
0030
0060
60E0
7FC0
1F00
ENDCHAR
STARTCHAR 003A
ENCODING 58
SWIDTH 280 0
DWIDTH 7 0
BBX 2 9 3 2
BITMAP
C0
C0
00
00
00
00
00
C0
C0
ENDCHAR
STARTCHAR 003B
ENCODING 59
SWIDTH 320 0
DWIDTH 8 0
BBX 2 17 3 -3
BITMAP
C0
C0
00
00
00
00
00
00
00
00
00
C0
C0
C0
40
40
80
ENDCHAR
STARTCHAR 003C
ENCODING 60
SWIDTH 600 0
DWIDTH 15 0
BBX 6 12 4 2
BITMAP
04
0C
18
30
60
C0
C0
60
30
18
0C
04
ENDCHAR
STARTCHAR 003D
ENCODING 61
SWIDTH 760 0
DWIDTH 19 0
BBX 13 6 3 6
BITMAP
FFF8
FFF8
0000
0000
FFF8
FFF8
ENDCHAR
STARTCHAR 003E
ENCODING 62
SWIDTH 600 0
DWIDTH 15 0
BBX 6 11 5 2
BITMAP
80
C0
60
30
18
0C
0C
18
30
60
C0
ENDCHAR
STARTCHAR 003F
ENCODING 63
SWIDTH 520 0
DWIDTH 13 0
BBX 11 18 1 0
BITMAP
1F00
3FC0
60C0
C060
C060
0060
00C0
00C0
0380
0700
0600
0C00
0C00
0000
0000
0000
0C00
0C00
ENDCHAR
STARTCHAR 0040
ENCODING 64
SWIDTH 920 0
DWIDTH 23 0
BBX 19 19 2 -3
BITMAP
03F800
0FFE00
1C0700
300180
6000C0
60C0C0
C3F840
C31860
C61860
C61860
C61840
C318C0
C3FFC0
60C700
700000
380000
1C0C00
07FC00
00C000
ENDCHAR
STARTCHAR 0041
ENCODING 65
SWIDTH 640 0
DWIDTH 16 0
BBX 14 18 1 0
BITMAP
0300
0780
0780
0D80
0CC0
0CC0
18C0
1860
1860
3060
3030
3030
7FF0
7FF8
6018
C008
C00C
C00C
ENDCHAR
STARTCHAR 0042
ENCODING 66
SWIDTH 600 0
DWIDTH 15 0
BBX 13 18 2 0
BITMAP
FF80
FFC0
C060
C030
C030
C030
C060
C0E0
FFC0
FFE0
C070
C030
C018
C018
C030
C070
FFE0
FFC0
ENDCHAR
STARTCHAR 0043
ENCODING 67
SWIDTH 720 0
DWIDTH 18 0
BBX 16 18 1 0
BITMAP
07E0
1FF8
381C
7006
6006
C003
C000
C000
C000
C000
C000
C000
C003
6006
700E
381C
1FF8
07E0
ENDCHAR
STARTCHAR 0044
ENCODING 68
SWIDTH 680 0
DWIDTH 17 0
BBX 14 18 2 0
BITMAP
FF80
FFE0
C070
C030
C018
C018
C018
C00C
C00C
C00C
C00C
C018
C018
C018
C030
C070
FFE0
FF80
ENDCHAR
STARTCHAR 0045
ENCODING 69
SWIDTH 560 0
DWIDTH 14 0
BBX 11 18 2 0
BITMAP
FFE0
FFE0
C000
C000
C000
C000
C000
C000
FF80
FF80
C000
C000
C000
C000
C000
C000
FFE0
FFE0
ENDCHAR
STARTCHAR 0046
ENCODING 70
SWIDTH 520 0
DWIDTH 13 0
BBX 10 18 2 0
BITMAP
FFC0
FFC0
C000
C000
C000
C000
C000
C000
FF80
FF80
C000
C000
C000
C000
C000
C000
C000
C000
ENDCHAR
STARTCHAR 0047
ENCODING 71
SWIDTH 720 0
DWIDTH 18 0
BBX 16 18 1 0
BITMAP
07E0
1FF8
381C
700E
6006
C000
C000
C000
C000
C03F
C03F
C003
C003
6006
6006
381C
1FF8
07E0
ENDCHAR
STARTCHAR 0048
ENCODING 72
SWIDTH 680 0
DWIDTH 17 0
BBX 13 18 2 0
BITMAP
C008
C008
C008
C008
C008
C008
C008
C008
FFF8
FFF8
C008
C008
C008
C008
C008
C008
C008
C008
ENDCHAR
STARTCHAR 0049
ENCODING 73
SWIDTH 240 0
DWIDTH 6 0
BBX 2 18 2 0
BITMAP
C0
C0
C0
C0
C0
C0
C0
C0
C0
C0
C0
C0
C0
C0
C0
C0
C0
C0
ENDCHAR
STARTCHAR 004A
ENCODING 74
SWIDTH 480 0
DWIDTH 12 0
BBX 10 18 0 0
BITMAP
00C0
00C0
00C0
00C0
00C0
00C0
00C0
00C0
00C0
00C0
00C0
00C0
00C0
00C0
C180
E180
7F00
3E00
ENDCHAR
STARTCHAR 004B
ENCODING 75
SWIDTH 600 0
DWIDTH 15 0
BBX 12 18 2 0
BITMAP
C070
C0E0
C1C0
C380
C700
CE00
CC00
D800
F000
F800
DC00
CE00
C600
C300
C180
C0C0
C060
C030
ENDCHAR
STARTCHAR 004C
ENCODING 76
SWIDTH 520 0
DWIDTH 13 0
BBX 10 18 2 0
BITMAP
C000
C000
C000
C000
C000
C000
C000
C000
C000
C000
C000
C000
C000
C000
C000
C000
FFC0
FFC0
ENDCHAR
STARTCHAR 004D
ENCODING 77
SWIDTH 840 0
DWIDTH 21 0
BBX 17 18 2 0
BITMAP
C00180
C00180
E00380
E00380
F00780
F00780
D00580
D80D80
C80980
CC1980
CC1980
C63180
C63180
C36180
C36180
C1C180
C1C180
C08180
ENDCHAR
STARTCHAR 004E
ENCODING 78
SWIDTH 680 0
DWIDTH 17 0
BBX 13 18 2 0
BITMAP
C018
E018
E018
F018
F818
D818
CC18
CE18
C618
C318
C398
C198
C0D8
C0F8
C078
C038
C038
C018
ENDCHAR
STARTCHAR 004F
ENCODING 79
SWIDTH 720 0
DWIDTH 18 0
BBX 16 18 1 0
BITMAP
07E0
1FF8
381C
7006
6006
C003
C003
C003
C003
C003
C003
C003
C003
6006
7006
381C
1FF8
07E0
ENDCHAR
STARTCHAR 0050
ENCODING 80
SWIDTH 600 0
DWIDTH 15 0
BBX 12 18 2 0
BITMAP
FF80
FFE0
C070
C030
C030
C030
C030
C030
C070
FFE0
FF80
C000
C000
C000
C000
C000
C000
C000
ENDCHAR
STARTCHAR 0051
ENCODING 81
SWIDTH 720 0
DWIDTH 18 0
BBX 16 18 1 0
BITMAP
07E0
1FF8
381C
7006
6006
C003
C003
C003
C003
C003
C003
C003
C013
603E
701E
381E
1FFF
07E2
ENDCHAR
STARTCHAR 0052
ENCODING 82
SWIDTH 640 0
DWIDTH 16 0
BBX 13 18 2 0
BITMAP
FF80
FFE0
C070
C030
C030
C030
C030
C030
C070
FFE0
FF80
C0C0
C0C0
C0E0
C060
C070
C030
C038
ENDCHAR
STARTCHAR 0053
ENCODING 83
SWIDTH 600 0
DWIDTH 15 0
BBX 14 18 1 0
BITMAP
0FC0
3FE0
7070
6018
4018
6000
6000
3C00
1FC0
03F0
0038
0018
000C
C00C
E018
7038
3FF0
0FC0
ENDCHAR
STARTCHAR 0054
ENCODING 84
SWIDTH 600 0
DWIDTH 15 0
BBX 15 18 0 0
BITMAP
FFFE
FFFE
0100
0100
0100
0100
0100
0100
0100
0100
0100
0100
0100
0100
0100
0100
0100
0100
ENDCHAR
STARTCHAR 0055
ENCODING 85
SWIDTH 720 0
DWIDTH 18 0
BBX 14 18 2 0
BITMAP
C00C
C00C
C00C
C00C
C00C
C00C
C00C
C00C
C00C
C00C
C00C
C00C
C00C
C018
E018
7070
3FE0
0FC0
ENDCHAR
STARTCHAR 0056
ENCODING 86
SWIDTH 600 0
DWIDTH 15 0
BBX 15 18 0 0
BITMAP
C006
6004
600C
600C
3018
3018
3018
1830
1830
1830
0C60
0C60
0C60
06C0
06C0
06C0
0380
0380
ENDCHAR
STARTCHAR 0057
ENCODING 87
SWIDTH 920 0
DWIDTH 23 0
BBX 22 18 1 0
BITMAP
80300C
C0700C
C07018
C07818
60D818
60D830
60C830
208C30
318C30
318C60
318660
1B0660
1B0640
1B02C0
0A03C0
0E03C0
0E0380
0E0180
ENDCHAR
STARTCHAR 0058
ENCODING 88
SWIDTH 600 0
DWIDTH 15 0
BBX 14 18 1 0
BITMAP
C018
E018
6030
3060
38E0
18C0
0D80
0780
0700
0700
0F80
0D80
18C0
3860
3070
6030
E018
C01C
ENDCHAR
STARTCHAR 0059
ENCODING 89
SWIDTH 560 0
DWIDTH 14 0
BBX 14 18 0 0
BITMAP
C01C
6018
7030
3030
1860
1860
0CC0
0DC0
0780
0700
0300
0300
0300
0300
0300
0300
0300
0300
ENDCHAR
STARTCHAR 005A
ENCODING 90
SWIDTH 600 0
DWIDTH 15 0
BBX 13 18 1 0
BITMAP
FFF8
FFF0
0030
0060
00E0
00C0
0180
0180
0300
0600
0600
0C00
1C00
1800
3000
3000
7FF8
FFF8
ENDCHAR
STARTCHAR 005B
ENCODING 91
SWIDTH 400 0
DWIDTH 10 0
BBX 5 28 3 -6
BITMAP
F8
F8
C0
C0
C0
C0
C0
C0
C0
C0
C0
C0
C0
C0
C0
C0
C0
C0
C0
C0
C0
C0
C0
C0
C0
C0
F8
F8
ENDCHAR
STARTCHAR 005C
ENCODING 92
SWIDTH 400 0
DWIDTH 10 0
BBX 6 18 2 0
BITMAP
C0
C0
C0
C0
60
60
60
60
30
30
30
10
18
18
18
0C
0C
0C
ENDCHAR
STARTCHAR 005D
ENCODING 93
SWIDTH 400 0
DWIDTH 10 0
BBX 5 28 2 -6
BITMAP
F8
F8
18
18
18
18
18
18
18
18
18
18
18
18
18
18
18
18
18
18
18
18
18
18
18
18
F8
F8
ENDCHAR
STARTCHAR 005E
ENCODING 94
SWIDTH 680 0
DWIDTH 17 0
BBX 11 7 3 11
BITMAP
0400
0E00
1B00
3180
60C0
C060
8020
ENDCHAR
STARTCHAR 005F
ENCODING 95
SWIDTH 680 0
DWIDTH 17 0
BBX 16 2 0 -3
BITMAP
FFFF
FFFF
ENDCHAR
STARTCHAR 0060
ENCODING 96
SWIDTH 480 0
DWIDTH 12 0
BBX 3 4 4 20
BITMAP
C0
40
60
20
ENDCHAR
STARTCHAR 0061
ENCODING 97
SWIDTH 560 0
DWIDTH 14 0
BBX 11 14 1 0
BITMAP
1F80
3FC0
6060
6060
0020
0060
1FE0
7C20
E060
C060
C060
C0E0
7FA0
3E20
ENDCHAR
STARTCHAR 0062
ENCODING 98
SWIDTH 600 0
DWIDTH 15 0
BBX 12 18 2 0
BITMAP
C000
C000
C000
C000
DF00
FFC0
E0E0
C060
C060
8030
8030
8030
8030
C060
C060
E0E0
BFC0
9F00
ENDCHAR
STARTCHAR 0063
ENCODING 99
SWIDTH 560 0
DWIDTH 14 0
BBX 12 14 1 0
BITMAP
0F80
3FE0
7060
6030
C000
C000
C000
C000
C000
C000
6030
7060
3FE0
0F80
ENDCHAR
STARTCHAR 0064
ENCODING 100
SWIDTH 600 0
DWIDTH 15 0
BBX 12 18 1 0
BITMAP
0030
0030
0030
0030
1F30
3FF0
7070
6030
C030
C030
C030
C030
C030
C030
6030
7070
3FF0
1F30
ENDCHAR
STARTCHAR 0065
ENCODING 101
SWIDTH 600 0
DWIDTH 15 0
BBX 13 14 1 0
BITMAP
0F80
3FE0
7060
6030
C030
C010
FFF8
FFF8
C000
C000
6030
7070
3FE0
0F80
ENDCHAR
STARTCHAR 0066
ENCODING 102
SWIDTH 360 0
DWIDTH 9 0
BBX 8 18 1 0
BITMAP
1F
3F
30
30
FF
FF
30
30
30
30
30
30
30
30
30
30
30
30
ENDCHAR
STARTCHAR 0067
ENCODING 103
SWIDTH 600 0
DWIDTH 15 0
BBX 12 20 1 -6
BITMAP
1F30
3FF0
7070
6030
C030
C030
C030
C030
C030
C030
6030
7070
3FF0
1F30
0030
0030
2030
7060
3FE0
0F80
ENDCHAR
STARTCHAR 0068
ENCODING 104
SWIDTH 600 0
DWIDTH 15 0
BBX 11 18 2 0
BITMAP
8000
8000
8000
8000
9F00
BFC0
E0C0
C060
C060
C060
C060
C060
C060
C060
C060
C060
C060
C060
ENDCHAR
STARTCHAR 0069
ENCODING 105
SWIDTH 240 0
DWIDTH 6 0
BBX 2 18 2 0
BITMAP
C0
C0
00
00
C0
C0
C0
C0
C0
C0
C0
C0
C0
C0
C0
C0
C0
C0
ENDCHAR
STARTCHAR 006A
ENCODING 106
SWIDTH 240 0
DWIDTH 6 0
BBX 4 24 0 -6
BITMAP
30
30
00
00
30
30
30
30
30
30
30
30
30
30
30
30
30
30
30
30
30
30
F0
E0
ENDCHAR
STARTCHAR 006B
ENCODING 107
SWIDTH 480 0
DWIDTH 12 0
BBX 10 18 2 0
BITMAP
C000
C000
C000
C000
C1C0
C380
C700
CE00
CC00
D800
F000
F000
D800
CC00
C600
C300
C180
C0C0
ENDCHAR
STARTCHAR 006C
ENCODING 108
SWIDTH 240 0
DWIDTH 6 0
BBX 2 18 2 0
BITMAP
C0
C0
C0
C0
C0
C0
C0
C0
C0
C0
C0
C0
C0
C0
C0
C0
C0
C0
ENDCHAR
STARTCHAR 006D
ENCODING 109
SWIDTH 840 0
DWIDTH 21 0
BBX 18 14 2 0
BITMAP
9E1E00
BFBF80
E1E180
C1C0C0
C0C0C0
C0C0C0
C0C0C0
C0C0C0
C0C0C0
C0C0C0
C0C0C0
C0C0C0
C0C0C0
C0C0C0
ENDCHAR
STARTCHAR 006E
ENCODING 110
SWIDTH 600 0
DWIDTH 15 0
BBX 11 14 2 0
BITMAP
9F00
BFC0
E0C0
C060
C060
C060
C060
C060
C060
C060
C060
C060
C060
C060
ENDCHAR
STARTCHAR 006F
ENCODING 111
SWIDTH 600 0
DWIDTH 15 0
BBX 13 14 1 0
BITMAP
0F80
3FE0
7060
6030
C030
C018
C018
C018
C018
C030
6030
7070
3FE0
0F80
ENDCHAR
STARTCHAR 0070
ENCODING 112
SWIDTH 600 0
DWIDTH 15 0
BBX 12 20 2 -6
BITMAP
9F00
BFC0
E0E0
C060
C060
8030
8030
8030
8030
C060
C060
E0E0
FFC0
DF00
C000
C000
C000
C000
C000
C000
ENDCHAR
STARTCHAR 0071
ENCODING 113
SWIDTH 600 0
DWIDTH 15 0
BBX 12 20 1 -6
BITMAP
1F30
3FF0
7070
6030
C030
C030
C030
C030
C030
C030
6030
7070
3FF0
1F30
0030
0030
0030
0030
0030
0030
ENDCHAR
STARTCHAR 0072
ENCODING 114
SWIDTH 360 0
DWIDTH 9 0
BBX 6 14 2 0
BITMAP
9C
BC
E0
C0
C0
C0
C0
C0
C0
C0
C0
C0
C0
C0
ENDCHAR
STARTCHAR 0073
ENCODING 115
SWIDTH 520 0
DWIDTH 13 0
BBX 11 14 1 0
BITMAP
1F00
7FC0
60E0
C060
E000
7000
3F00
07C0
00E0
0060
C060
E060
7FC0
1F80
ENDCHAR
STARTCHAR 0074
ENCODING 116
SWIDTH 400 0
DWIDTH 10 0
BBX 9 18 0 0
BITMAP
1800
1800
1800
1800
FF80
FF80
1800
1800
1800
1800
1800
1800
1800
1800
1800
1800
0F80
0780
ENDCHAR
STARTCHAR 0075
ENCODING 117
SWIDTH 600 0
DWIDTH 15 0
BBX 12 14 1 0
BITMAP
C030
C030
C030
C030
C030
C030
C030
C030
6030
6030
6030
7070
3FF0
0F30
ENDCHAR
STARTCHAR 0076
ENCODING 118
SWIDTH 520 0
DWIDTH 13 0
BBX 11 14 1 0
BITMAP
C060
C060
C0C0
60C0
60C0
6180
3180
3180
3300
1B00
1B00
1E00
0E00
0C00
ENDCHAR
STARTCHAR 0077
ENCODING 119
SWIDTH 760 0
DWIDTH 19 0
BBX 18 14 1 0
BITMAP
80C0C0
C1C180
C1C180
C14180
636100
636300
622300
323200
363600
361600
141E00
1C1C00
1C1C00
180C00
ENDCHAR
STARTCHAR 0078
ENCODING 120
SWIDTH 520 0
DWIDTH 13 0
BBX 12 14 1 0
BITMAP
C060
E060
60C0
3180
1B00
1F00
0E00
0E00
1F00
1B80
3180
60C0
E060
C070
ENDCHAR
STARTCHAR 0079
ENCODING 121
SWIDTH 520 0
DWIDTH 13 0
BBX 12 20 1 -6
BITMAP
C030
C060
C060
6040
60C0
30C0
3180
3180
1980
1B00
0F00
0E00
0E00
0600
0400
0C00
0C00
1800
1800
1800
ENDCHAR
STARTCHAR 007A
ENCODING 122
SWIDTH 520 0
DWIDTH 13 0
BBX 11 14 1 0
BITMAP
FFE0
FFC0
00C0
0180
0300
0700
0600
0C00
1800
3800
3000
6000
FFE0
FFE0
ENDCHAR
STARTCHAR 007B
ENCODING 123
SWIDTH 400 0
DWIDTH 10 0
BBX 5 28 4 -6
BITMAP
38
78
60
60
60
60
60
60
60
60
60
60
C0
C0
C0
C0
60
60
60
60
60
60
60
60
60
60
78
18
ENDCHAR
STARTCHAR 007C
ENCODING 124
SWIDTH 240 0
DWIDTH 6 0
BBX 2 18 2 0
BITMAP
C0
C0
C0
C0
C0
C0
C0
C0
C0
C0
C0
C0
C0
C0
C0
C0
C0
C0
ENDCHAR
STARTCHAR 007D
ENCODING 125
SWIDTH 400 0
DWIDTH 10 0
BBX 6 28 1 -6
BITMAP
E0
F0
18
18
18
18
18
18
18
18
18
18
18
0C
0C
18
18
18
18
18
18
18
18
18
18
30
F0
E0
ENDCHAR
STARTCHAR 007E
ENCODING 126
SWIDTH 680 0
DWIDTH 17 0
BBX 11 4 3 6
BITMAP
7860
FC60
CFC0
C3C0
ENDCHAR
STARTCHAR 00A0
ENCODING 160
SWIDTH 200 0
DWIDTH 5 0
BBX 0 0 0 0
BITMAP
ENDCHAR
STARTCHAR 00A1
ENCODING 161
SWIDTH 320 0
DWIDTH 8 0
BBX 2 18 3 -4
BITMAP
C0
C0
00
00
C0
C0
C0
C0
C0
C0
C0
C0
C0
C0
C0
C0
C0
C0
ENDCHAR
STARTCHAR 00A2
ENCODING 162
SWIDTH 560 0
DWIDTH 14 0
BBX 12 19 1 -1
BITMAP
0200
0200
0700
3FC0
70E0
6030
E020
C000
C000
C000
C000
C000
C000
6030
70E0
3FC0
0F00
0200
0200
ENDCHAR
STARTCHAR 00A3
ENCODING 163
SWIDTH 560 0
DWIDTH 14 0
BBX 12 18 1 0
BITMAP
07C0
0FE0
1C70
1830
1810
1800
1800
1800
FF80
FF80
1800
1800
1800
1800
1800
1800
FFF0
FFF0
ENDCHAR
STARTCHAR 00A4
ENCODING 164
SWIDTH 640 0
DWIDTH 16 0
BBX 14 14 1 2
BITMAP
C30C
FFFC
7878
7038
6018
4008
C00C
C00C
4008
6018
7038
7878
FFFC
C78C
ENDCHAR
STARTCHAR 00A5
ENCODING 165
SWIDTH 560 0
DWIDTH 14 0
BBX 14 18 0 0
BITMAP
C01C
6018
7030
3030
1860
1860
0CC0
0DC0
0780
0700
3FF0
3FF0
0300
3FF0
3FF0
0300
0300
0300
ENDCHAR
STARTCHAR 00A6
ENCODING 166
SWIDTH 240 0
DWIDTH 6 0
BBX 2 22 2 -4
BITMAP
C0
C0
C0
C0
C0
C0
C0
C0
C0
00
00
00
00
C0
C0
C0
C0
C0
C0
C0
C0
C0
ENDCHAR
STARTCHAR 00A7
ENCODING 167
SWIDTH 520 0
DWIDTH 13 0
BBX 11 21 1 -4
BITMAP
0E00
3F80
61C0
60C0
4000
6000
3C00
3F80
61E0
C060
C060
E060
78E0
1FC0
03C0
00E0
0060
E060
60E0
3FC0
1F80
ENDCHAR
STARTCHAR 00A8
ENCODING 168
SWIDTH 520 0
DWIDTH 13 0
BBX 7 2 3 21
BITMAP
C6
C6
ENDCHAR
STARTCHAR 00A9
ENCODING 169
SWIDTH 800 0
DWIDTH 20 0
BBX 18 19 1 -1
BITMAP
03F000
0FFC00
1C0E00
300300
61E180
63F9C0
C618C0
C400C0
CC00C0
CC0040
CC00C0
C608C0
C618C0
63F180
700380
380700
1C1E00
0FFC00
01E000
ENDCHAR
STARTCHAR 00AA
ENCODING 170
SWIDTH 320 0
DWIDTH 8 0
BBX 6 7 1 7
BITMAP
78
CC
0C
7C
C4
8C
F4
ENDCHAR
STARTCHAR 00AB
ENCODING 171
SWIDTH 520 0
DWIDTH 13 0
BBX 9 11 2 1
BITMAP
0880
1980
3100
2300
6600
CC00
6600
2300
3180
1980
0880
ENDCHAR
STARTCHAR 00AC
ENCODING 172
SWIDTH 600 0
DWIDTH 15 0
BBX 12 5 1 5
BITMAP
FFF0
FFF0
0010
0010
0010
ENDCHAR
STARTCHAR 00AD
ENCODING 173
SWIDTH 440 0
DWIDTH 11 0
BBX 8 2 1 7
BITMAP
FF
FF
ENDCHAR
STARTCHAR 00AE
ENCODING 174
SWIDTH 640 0
DWIDTH 16 0
BBX 12 12 2 7
BITMAP
1F80
70C0
6060
CF20
8930
8930
8F30
8B30
C920
6060
3BC0
1F00
ENDCHAR
STARTCHAR 00AF
ENCODING 175
SWIDTH 480 0
DWIDTH 12 0
BBX 6 2 3 21
BITMAP
FC
FC
ENDCHAR
STARTCHAR 00B0
ENCODING 176
SWIDTH 440 0
DWIDTH 11 0
BBX 9 9 1 9
BITMAP
3C00
7F00
C300
C180
8180
C180
C300
7F00
3C00
ENDCHAR
STARTCHAR 00B1
ENCODING 177
SWIDTH 600 0
DWIDTH 15 0
BBX 12 12 1 2
BITMAP
0200
0200
0200
FFF0
FFF0
0200
0200
0200
0000
0000
FFF0
FFF0
ENDCHAR
STARTCHAR 00B2
ENCODING 178
SWIDTH 400 0
DWIDTH 10 0
BBX 8 11 1 7
BITMAP
3C
66
C3
C3
03
06
0C
18
30
60
FF
ENDCHAR
STARTCHAR 00B3
ENCODING 179
SWIDTH 400 0
DWIDTH 10 0
BBX 7 11 1 7
BITMAP
FE
06
0C
18
3C
06
02
02
02
C6
7C
ENDCHAR
STARTCHAR 00B4
ENCODING 180
SWIDTH 480 0
DWIDTH 12 0
BBX 3 4 5 20
BITMAP
60
40
C0
C0
ENDCHAR
STARTCHAR 00B5
ENCODING 181
SWIDTH 600 0
DWIDTH 15 0
BBX 11 20 2 -6
BITMAP
C060
C060
C060
C060
C060
C060
C060
C060
C060
C060
C060
E0E0
BFA0
9F20
8000
8000
8000
8000
8000
8000
ENDCHAR
STARTCHAR 00B6
ENCODING 182
SWIDTH 640 0
DWIDTH 16 0
BBX 12 22 2 -4
BITMAP
1F30
7F30
7F30
FF30
FF30
FF30
FF30
FF30
FF30
7F30
1F30
0130
0130
0130
0130
0130
0130
0130
0130
0130
0130
0130
ENDCHAR
STARTCHAR 00B7
ENCODING 183
SWIDTH 240 0
DWIDTH 6 0
BBX 3 3 1 6
BITMAP
60
E0
60
ENDCHAR
STARTCHAR 00B8
ENCODING 184
SWIDTH 400 0
DWIDTH 10 0
BBX 4 6 3 -6
BITMAP
60
40
70
30
B0
E0
ENDCHAR
STARTCHAR 00B9
ENCODING 185
SWIDTH 320 0
DWIDTH 8 0
BBX 4 11 1 7
BITMAP
30
F0
90
10
10
10
10
10
10
10
10
ENDCHAR
STARTCHAR 00BA
ENCODING 186
SWIDTH 360 0
DWIDTH 9 0
BBX 7 7 1 7
BITMAP
78
CC
C4
86
C6
C4
78
ENDCHAR
STARTCHAR 00BB
ENCODING 187
SWIDTH 520 0
DWIDTH 13 0
BBX 9 11 2 1
BITMAP
8800
CC00
6600
3300
1180
1880
3180
2300
6600
CC00
8000
ENDCHAR
STARTCHAR 00BC
ENCODING 188
SWIDTH 960 0
DWIDTH 24 0
BBX 20 18 1 0
BITMAP
300100
F00300
900300
100600
100C00
101800
101800
1030C0
106180
10C180
10C100
018300
030220
060620
0C0420
0C07F0
180020
100020
ENDCHAR
STARTCHAR 00BD
ENCODING 189
SWIDTH 920 0
DWIDTH 23 0
BBX 21 18 1 0
BITMAP
300100
F00300
900300
100600
100C00
101800
101800
1031F0
106318
10C218
10C008
018018
030030
060060
0C00C0
0C0180
180300
1003F8
ENDCHAR
STARTCHAR 00BE
ENCODING 190
SWIDTH 960 0
DWIDTH 24 0
BBX 22 18 1 0
BITMAP
FE0040
0600C0
0C0180
180180
3C0300
060600
020C00
020C60
021860
C63040
7C60C0
00C098
00C198
018118
030318
0603FC
060018
040018
ENDCHAR
STARTCHAR 00BF
ENCODING 191
SWIDTH 520 0
DWIDTH 13 0
BBX 11 19 1 -5
BITMAP
0600
0600
0000
0000
0000
0600
0600
0E00
0C00
3800
7000
6000
C000
C000
C060
E060
70C0
3F80
1F00
ENDCHAR
STARTCHAR 00C0
ENCODING 192
SWIDTH 640 0
DWIDTH 16 0
BBX 14 24 1 0
BITMAP
0400
0600
0600
0200
0000
0000
0300
0780
0780
0D80
0CC0
0CC0
18C0
1860
1860
3060
3030
3030
7FF0
7FF8
6018
C008
C00C
C00C
ENDCHAR
STARTCHAR 00C1
ENCODING 193
SWIDTH 640 0
DWIDTH 16 0
BBX 14 24 1 0
BITMAP
0080
0180
0100
0300
0000
0000
0300
0780
0780
0D80
0CC0
0CC0
18C0
1860
1860
3060
3030
3030
7FF0
7FF8
6018
C008
C00C
C00C
ENDCHAR
STARTCHAR 00C2
ENCODING 194
SWIDTH 640 0
DWIDTH 16 0
BBX 14 23 1 0
BITMAP
0780
0D80
0CC0
0000
0000
0300
0780
0780
0D80
0CC0
0CC0
18C0
1860
1860
3060
3030
3030
7FF0
7FF8
6018
C008
C00C
C00C
ENDCHAR
STARTCHAR 00C3
ENCODING 195
SWIDTH 640 0
DWIDTH 16 0
BBX 14 24 1 0
BITMAP
0060
1F60
11C0
0000
0000
0000
0300
0780
0780
0D80
0CC0
0CC0
18C0
1860
1860
3060
3030
3030
7FF0
7FF8
6018
C008
C00C
C00C
ENDCHAR
STARTCHAR 00C4
ENCODING 196
SWIDTH 640 0
DWIDTH 16 0
BBX 14 23 1 0
BITMAP
0CC0
0CC0
0000
0000
0000
0300
0780
0780
0D80
0CC0
0CC0
18C0
1860
1860
3060
3030
3030
7FF0
7FF8
6018
C008
C00C
C00C
ENDCHAR
STARTCHAR 00C5
ENCODING 197
SWIDTH 640 0
DWIDTH 16 0
BBX 14 25 1 0
BITMAP
0700
0F80
0CC0
0CC0
0780
0000
0000
0300
0780
0780
0D80
0CC0
0CC0
18C0
1860
1860
3060
3030
3030
7FF0
7FF8
6018
C008
C00C
C00C
ENDCHAR
STARTCHAR 00C6
ENCODING 198
SWIDTH 920 0
DWIDTH 23 0
BBX 21 18 1 0
BITMAP
03FFF8
07FFF8
066000
0C6000
0C6000
0C6000
186000
186000
187FE0
307FE0
306000
306000
7FE000
7FE000
606000
C06000
C07FF8
C07FF8
ENDCHAR
STARTCHAR 00C7
ENCODING 199
SWIDTH 720 0
DWIDTH 18 0
BBX 16 23 1 -5
BITMAP
07E0
1FF8
381C
7006
6006
C003
C000
C000
C000
C000
C000
C000
C003
6006
700E
381C
1FF8
07E0
0080
0180
00C0
0040
03C0
ENDCHAR
STARTCHAR 00C8
ENCODING 200
SWIDTH 560 0
DWIDTH 14 0
BBX 11 24 2 0
BITMAP
0800
0C00
0C00
0400
0000
0000
FFE0
FFE0
C000
C000
C000
C000
C000
C000
FF80
FF80
C000
C000
C000
C000
C000
C000
FFE0
FFE0
ENDCHAR
STARTCHAR 00C9
ENCODING 201
SWIDTH 560 0
DWIDTH 14 0
BBX 11 24 2 0
BITMAP
0300
0200
0600
0600
0000
0000
FFE0
FFE0
C000
C000
C000
C000
C000
C000
FF80
FF80
C000
C000
C000
C000
C000
C000
FFE0
FFE0
ENDCHAR
STARTCHAR 00CA
ENCODING 202
SWIDTH 560 0
DWIDTH 14 0
BBX 11 23 2 0
BITMAP
0E00
1B00
3180
0000
0000
FFE0
FFE0
C000
C000
C000
C000
C000
C000
FF80
FF80
C000
C000
C000
C000
C000
C000
FFE0
FFE0
ENDCHAR
STARTCHAR 00CB
ENCODING 203
SWIDTH 560 0
DWIDTH 14 0
BBX 11 23 2 0
BITMAP
3300
3300
0000
0000
0000
FFE0
FFE0
C000
C000
C000
C000
C000
C000
FF80
FF80
C000
C000
C000
C000
C000
C000
FFE0
FFE0
ENDCHAR
STARTCHAR 00CC
ENCODING 204
SWIDTH 240 0
DWIDTH 6 0
BBX 3 24 1 0
BITMAP
80
C0
40
60
00
00
60
60
60
60
60
60
60
60
60
60
60
60
60
60
60
60
60
60
ENDCHAR
STARTCHAR 00CD
ENCODING 205
SWIDTH 240 0
DWIDTH 6 0
BBX 3 24 2 0
BITMAP
60
60
40
C0
00
00
C0
C0
C0
C0
C0
C0
C0
C0
C0
C0
C0
C0
C0
C0
C0
C0
C0
C0
ENDCHAR
STARTCHAR 00CE
ENCODING 206
SWIDTH 240 0
DWIDTH 6 0
BBX 6 23 0 0
BITMAP
70
D8
8C
00
00
30
30
30
30
30
30
30
30
30
30
30
30
30
30
30
30
30
30
ENDCHAR
STARTCHAR 00CF
ENCODING 207
SWIDTH 240 0
DWIDTH 6 0
BBX 6 23 0 0
BITMAP
CC
CC
00
00
00
30
30
30
30
30
30
30
30
30
30
30
30
30
30
30
30
30
30
ENDCHAR
STARTCHAR 00D0
ENCODING 208
SWIDTH 680 0
DWIDTH 17 0
BBX 16 18 0 0
BITMAP
3FE0
3FF8
201C
200C
2006
2006
2006
2006
FF03
FF03
2002
2006
2006
2006
200C
201C
3FF8
3FE0
ENDCHAR
STARTCHAR 00D1
ENCODING 209
SWIDTH 680 0
DWIDTH 17 0
BBX 13 23 2 0
BITMAP
0E60
1FE0
11C0
0000
0000
C018
E018
E018
F018
F818
D818
CC18
CE18
C618
C318
C398
C198
C0D8
C0F8
C078
C038
C038
C018
ENDCHAR
STARTCHAR 00D2
ENCODING 210
SWIDTH 720 0
DWIDTH 18 0
BBX 16 24 1 0
BITMAP
0200
0300
0100
0180
0000
0000
07E0
1FF8
381C
7006
6006
C003
C003
C003
C003
C003
C003
C003
C003
6006
7006
381C
1FF8
07E0
ENDCHAR
STARTCHAR 00D3
ENCODING 211
SWIDTH 720 0
DWIDTH 18 0
BBX 16 24 1 0
BITMAP
0040
0040
00C0
0080
0000
0000
07E0
1FF8
381C
7006
6006
C003
C003
C003
C003
C003
C003
C003
C003
6006
7006
381C
1FF8
07E0
ENDCHAR
STARTCHAR 00D4
ENCODING 212
SWIDTH 720 0
DWIDTH 18 0
BBX 16 23 1 0
BITMAP
0180
03C0
0660
0000
0000
07E0
1FF8
381C
7006
6006
C003
C003
C003
C003
C003
C003
C003
C003
6006
7006
381C
1FF8
07E0
ENDCHAR
STARTCHAR 00D5
ENCODING 213
SWIDTH 720 0
DWIDTH 18 0
BBX 16 23 1 0
BITMAP
0010
07B0
0CE0
0000
0000
07E0
1FF8
381C
7006
6006
C003
C003
C003
C003
C003
C003
C003
C003
6006
7006
381C
1FF8
07E0
ENDCHAR
STARTCHAR 00D6
ENCODING 214
SWIDTH 720 0
DWIDTH 18 0
BBX 16 22 1 0
BITMAP
0660
0660
0000
0000
07E0
1FF8
381C
7006
6006
C003
C003
C003
C003
C003
C003
C003
C003
6006
7006
381C
1FF8
07E0
ENDCHAR
STARTCHAR 00D7
ENCODING 215
SWIDTH 480 0
DWIDTH 12 0
BBX 8 9 2 5
BITMAP
81
C3
66
3C
18
3C
66
C3
81
ENDCHAR
STARTCHAR 00D8
ENCODING 216
SWIDTH 720 0
DWIDTH 18 0
BBX 16 18 1 0
BITMAP
07E1
1FFB
381F
700E
601F
C03B
C073
C0E3
C1C3
C183
C303
C603
CC03
7806
7006
781C
DFF8
87E0
ENDCHAR
STARTCHAR 00D9
ENCODING 217
SWIDTH 720 0
DWIDTH 18 0
BBX 14 24 2 0
BITMAP
0600
0600
0200
0300
0000
0000
C00C
C00C
C00C
C00C
C00C
C00C
C00C
C00C
C00C
C00C
C00C
C00C
C00C
C018
E018
7070
3FE0
0FC0
ENDCHAR
STARTCHAR 00DA
ENCODING 218
SWIDTH 720 0
DWIDTH 18 0
BBX 14 24 2 0
BITMAP
0180
0100
0300
0300
0000
0000
C00C
C00C
C00C
C00C
C00C
C00C
C00C
C00C
C00C
C00C
C00C
C00C
C00C
C018
E018
7070
3FE0
0FC0
ENDCHAR
STARTCHAR 00DB
ENCODING 219
SWIDTH 720 0
DWIDTH 18 0
BBX 14 23 2 0
BITMAP
0700
0D80
18C0
0000
0000
C00C
C00C
C00C
C00C
C00C
C00C
C00C
C00C
C00C
C00C
C00C
C00C
C00C
C018
E018
7070
3FE0
0FC0
ENDCHAR
STARTCHAR 00DC
ENCODING 220
SWIDTH 720 0
DWIDTH 18 0
BBX 14 23 2 0
BITMAP
18C0
18C0
0000
0000
0000
C00C
C00C
C00C
C00C
C00C
C00C
C00C
C00C
C00C
C00C
C00C
C00C
C00C
C018
E018
7070
3FE0
0FC0
ENDCHAR
STARTCHAR 00DD
ENCODING 221
SWIDTH 560 0
DWIDTH 14 0
BBX 14 24 0 0
BITMAP
0180
0100
0300
0300
0000
0000
C01C
6018
7030
3030
1860
1860
0CC0
0DC0
0780
0700
0300
0300
0300
0300
0300
0300
0300
0300
ENDCHAR
STARTCHAR 00DE
ENCODING 222
SWIDTH 600 0
DWIDTH 15 0
BBX 12 18 2 0
BITMAP
C000
C000
C000
FF00
FFC0
C0E0
C070
C030
C030
C030
C030
C070
C0E0
FFC0
FF00
C000
C000
C000
ENDCHAR
STARTCHAR 00DF
ENCODING 223
SWIDTH 600 0
DWIDTH 15 0
BBX 11 18 2 0
BITMAP
3E00
7F80
E180
C0C0
C0C0
C0C0
C1C0
C380
C780
C3C0
C060
C060
C020
C060
C060
C0E0
DFC0
DF00
ENDCHAR
STARTCHAR 00E0
ENCODING 224
SWIDTH 560 0
DWIDTH 14 0
BBX 11 20 1 0
BITMAP
0C00
0C00
0400
0600
0000
0000
1F80
3FC0
6060
6060
0020
0060
1FE0
7C20
E060
C060
C060
C0E0
7FA0
3E20
ENDCHAR
STARTCHAR 00E1
ENCODING 225
SWIDTH 560 0
DWIDTH 14 0
BBX 11 20 1 0
BITMAP
0100
0300
0200
0600
0000
0000
1F80
3FC0
6060
6060
0020
0060
1FE0
7C20
E060
C060
C060
C0E0
7FA0
3E20
ENDCHAR
STARTCHAR 00E2
ENCODING 226
SWIDTH 560 0
DWIDTH 14 0
BBX 11 19 1 0
BITMAP
0600
0F00
1980
0000
0000
1F80
3FC0
6060
6060
0020
0060
1FE0
7C20
E060
C060
C060
C0E0
7FA0
3E20
ENDCHAR
STARTCHAR 00E3
ENCODING 227
SWIDTH 560 0
DWIDTH 14 0
BBX 11 19 1 0
BITMAP
0040
1EC0
33C0
0000
0000
1F80
3FC0
6060
6060
0020
0060
1FE0
7C20
E060
C060
C060
C0E0
7FA0
3E20
ENDCHAR
STARTCHAR 00E4
ENCODING 228
SWIDTH 560 0
DWIDTH 14 0
BBX 11 18 1 0
BITMAP
18C0
18C0
0000
0000
1F80
3FC0
6060
6060
0020
0060
1FE0
7C20
E060
C060
C060
C0E0
7FA0
3E20
ENDCHAR
STARTCHAR 00E5
ENCODING 229
SWIDTH 560 0
DWIDTH 14 0
BBX 11 20 1 0
BITMAP
0F00
0980
1980
0F80
0700
0000
1F80
3FC0
6060
6060
0020
0060
1FE0
7C20
E060
C060
C060
C0E0
7FA0
3E20
ENDCHAR
STARTCHAR 00E6
ENCODING 230
SWIDTH 960 0
DWIDTH 24 0
BBX 22 14 1 0
BITMAP
1F87C0
3FCFF0
60F830
607018
007018
003008
1FFFFC
7C3FFC
C07000
C07000
C07018
C0D838
7F8FF0
3F07C0
ENDCHAR
STARTCHAR 00E7
ENCODING 231
SWIDTH 560 0
DWIDTH 14 0
BBX 12 19 1 -5
BITMAP
0F80
3FE0
7060
6030
C000
C000
C000
C000
C000
C000
6030
7060
3FE0
0F80
0600
0600
0300
0300
0F00
ENDCHAR
STARTCHAR 00E8
ENCODING 232
SWIDTH 600 0
DWIDTH 15 0
BBX 13 20 1 0
BITMAP
0C00
0400
0600
0200
0000
0000
0F80
3FE0
7060
6030
C030
C010
FFF8
FFF8
C000
C000
6030
7070
3FE0
0F80
ENDCHAR
STARTCHAR 00E9
ENCODING 233
SWIDTH 600 0
DWIDTH 15 0
BBX 13 20 1 0
BITMAP
0180
0100
0100
0300
0000
0000
0F80
3FE0
7060
6030
C030
C010
FFF8
FFF8
C000
C000
6030
7070
3FE0
0F80
ENDCHAR
STARTCHAR 00EA
ENCODING 234
SWIDTH 600 0
DWIDTH 15 0
BBX 13 19 1 0
BITMAP
0700
0D80
1980
0040
0000
0F80
3FE0
7060
6030
C030
C010
FFF8
FFF8
C000
C000
6030
7070
3FE0
0F80
ENDCHAR
STARTCHAR 00EB
ENCODING 235
SWIDTH 600 0
DWIDTH 15 0
BBX 13 18 1 0
BITMAP
18C0
18C0
0000
0000
0F80
3FE0
7060
6030
C030
C010
FFF8
FFF8
C000
C000
6030
7070
3FE0
0F80
ENDCHAR
STARTCHAR 00EC
ENCODING 236
SWIDTH 240 0
DWIDTH 6 0
BBX 3 20 1 0
BITMAP
80
C0
40
60
00
00
60
60
60
60
60
60
60
60
60
60
60
60
60
60
ENDCHAR
STARTCHAR 00ED
ENCODING 237
SWIDTH 240 0
DWIDTH 6 0
BBX 3 20 2 0
BITMAP
60
60
40
C0
00
00
C0
C0
C0
C0
C0
C0
C0
C0
C0
C0
C0
C0
C0
C0
ENDCHAR
STARTCHAR 00EE
ENCODING 238
SWIDTH 240 0
DWIDTH 6 0
BBX 6 19 0 0
BITMAP
78
48
CC
00
00
30
30
30
30
30
30
30
30
30
30
30
30
30
30
ENDCHAR
STARTCHAR 00EF
ENCODING 239
SWIDTH 240 0
DWIDTH 6 0
BBX 6 18 0 0
BITMAP
CC
CC
00
00
30
30
30
30
30
30
30
30
30
30
30
30
30
30
ENDCHAR
STARTCHAR 00F0
ENCODING 240
SWIDTH 600 0
DWIDTH 15 0
BBX 13 20 1 0
BITMAP
0040
06C0
0780
03C0
0360
0260
0030
0FB0
3FD0
7070
6030
C038
C018
C018
C010
C030
6030
6060
3FE0
1F80
ENDCHAR
STARTCHAR 00F1
ENCODING 241
SWIDTH 600 0
DWIDTH 15 0
BBX 11 19 2 0
BITMAP
0080
3D80
2380
0000
0000
9F00
BFC0
E0C0
C060
C060
C060
C060
C060
C060
C060
C060
C060
C060
C060
ENDCHAR
STARTCHAR 00F2
ENCODING 242
SWIDTH 600 0
DWIDTH 15 0
BBX 13 20 1 0
BITMAP
0C00
0C00
0600
0600
0000
0000
0F80
3FE0
7060
6030
C030
C018
C018
C018
C018
C030
6030
7070
3FE0
0F80
ENDCHAR
STARTCHAR 00F3
ENCODING 243
SWIDTH 600 0
DWIDTH 15 0
BBX 13 20 1 0
BITMAP
0180
0100
0300
0200
0000
0000
0F80
3FE0
7060
6030
C030
C018
C018
C018
C018
C030
6030
7070
3FE0
0F80
ENDCHAR
STARTCHAR 00F4
ENCODING 244
SWIDTH 600 0
DWIDTH 15 0
BBX 13 19 1 0
BITMAP
0700
0D80
1980
0040
0000
0F80
3FE0
7060
6030
C030
C018
C018
C018
C018
C030
6030
7070
3FE0
0F80
ENDCHAR
STARTCHAR 00F5
ENCODING 245
SWIDTH 600 0
DWIDTH 15 0
BBX 13 19 1 0
BITMAP
0040
1EC0
11C0
0000
0000
0F80
3FE0
7060
6030
C030
C018
C018
C018
C018
C030
6030
7070
3FE0
0F80
ENDCHAR
STARTCHAR 00F6
ENCODING 246
SWIDTH 600 0
DWIDTH 15 0
BBX 13 18 1 0
BITMAP
18C0
18C0
0000
0000
0F80
3FE0
7060
6030
C030
C018
C018
C018
C018
C030
6030
7070
3FE0
0F80
ENDCHAR
STARTCHAR 00F7
ENCODING 247
SWIDTH 560 0
DWIDTH 14 0
BBX 11 8 1 5
BITMAP
0600
0600
0000
FFE0
FFE0
0000
0600
0600
ENDCHAR
STARTCHAR 00F8
ENCODING 248
SWIDTH 600 0
DWIDTH 15 0
BBX 13 14 1 0
BITMAP
0F88
3FF8
7070
6070
C0F0
C198
C318
C618
CC18
D830
7030
7060
FFE0
8F80
ENDCHAR
STARTCHAR 00F9
ENCODING 249
SWIDTH 600 0
DWIDTH 15 0
BBX 12 20 1 0
BITMAP
0C00
0400
0600
0200
0000
0000
C030
C030
C030
C030
C030
C030
C030
C030
6030
6030
6030
7070
3FF0
0F30
ENDCHAR
STARTCHAR 00FA
ENCODING 250
SWIDTH 600 0
DWIDTH 15 0
BBX 12 20 1 0
BITMAP
0100
0300
0300
0200
0000
0000
C030
C030
C030
C030
C030
C030
C030
C030
6030
6030
6030
7070
3FF0
0F30
ENDCHAR
STARTCHAR 00FB
ENCODING 251
SWIDTH 600 0
DWIDTH 15 0
BBX 12 19 1 0
BITMAP
0700
0D80
18C0
0000
0000
C030
C030
C030
C030
C030
C030
C030
C030
6030
6030
6030
7070
3FF0
0F30
ENDCHAR
STARTCHAR 00FC
ENCODING 252
SWIDTH 600 0
DWIDTH 15 0
BBX 12 18 1 0
BITMAP
18C0
18C0
0000
0000
C030
C030
C030
C030
C030
C030
C030
C030
6030
6030
6030
7070
3FF0
0F30
ENDCHAR
STARTCHAR 00FD
ENCODING 253
SWIDTH 520 0
DWIDTH 13 0
BBX 12 26 1 -6
BITMAP
0300
0200
0600
0600
0000
0000
C030
C060
C060
6040
60C0
30C0
3180
3180
1980
1B00
0F00
0E00
0E00
0600
0400
0C00
0C00
1800
1800
1800
ENDCHAR
STARTCHAR 00FE
ENCODING 254
SWIDTH 600 0
DWIDTH 15 0
BBX 12 24 2 -6
BITMAP
C000
C000
C000
C000
DF00
FFC0
E0E0
C060
C060
8030
8030
8030
8030
C060
C060
E0E0
FFC0
DF00
C000
C000
C000
C000
C000
C000
ENDCHAR
STARTCHAR 00FF
ENCODING 255
SWIDTH 520 0
DWIDTH 13 0
BBX 12 24 1 -6
BITMAP
3180
3180
0000
0000
C030
C060
C060
6040
60C0
30C0
3180
3180
1980
1B00
0F00
0E00
0E00
0600
0400
0C00
0C00
1800
1800
1800
ENDCHAR
ENDFONT
